<svg width="10" height="13" viewBox="0 0 10 13" fill="none" xmlns="http://www.w3.org/2000/svg">
<path d="M1.746 13V0.147999H5.13C6.702 0.147999 7.866 0.465999 8.622 1.102C9.39 1.738 9.774 2.662 9.774 3.874C9.774 4.69 9.588 5.392 9.216 5.98C8.844 6.556 8.292 7 7.56 7.312C6.84 7.624 5.946 7.78 4.878 7.78H3.366V13H1.746ZM0.18 10.552V9.382H6.336V10.552H0.18ZM0.18 7.78V6.412H4.302V7.78H0.18ZM4.644 6.412C5.376 6.412 5.994 6.334 6.498 6.178C7.014 6.022 7.41 5.764 7.686 5.404C7.962 5.044 8.1 4.552 8.1 3.928C8.1 3.112 7.848 2.506 7.344 2.11C6.84 1.714 6.054 1.516 4.986 1.516H3.366V6.412H4.644Z" fill="#181818"/>
</svg>
