<svg width="12" height="16" viewBox="0 0 12 16" fill="none" xmlns="http://www.w3.org/2000/svg">
<path d="M2.134 16V0.291999H6.27C8.19133 0.291999 9.614 0.680666 10.538 1.458C11.4767 2.23533 11.946 3.36467 11.946 4.846C11.946 5.84333 11.7187 6.70133 11.264 7.42C10.8093 8.124 10.1347 8.66667 9.24 9.048C8.36 9.42933 7.26733 9.62 5.962 9.62H4.114V16H2.134ZM0.22 13.008V11.578H7.744V13.008H0.22ZM0.22 9.62V7.948H5.258V9.62H0.22ZM5.676 7.948C6.57067 7.948 7.326 7.85267 7.942 7.662C8.57267 7.47133 9.05667 7.156 9.394 6.716C9.73133 6.276 9.9 5.67467 9.9 4.912C9.9 3.91467 9.592 3.174 8.976 2.69C8.36 2.206 7.39933 1.964 6.094 1.964H4.114V7.948H5.676Z" fill="#181818"/>
</svg>
