<svg width="17" height="22" viewBox="0 0 17 22" fill="none" xmlns="http://www.w3.org/2000/svg">
<path d="M2.91 22V0.579999H8.55C11.17 0.579999 13.11 1.11 14.37 2.17C15.65 3.23 16.29 4.77 16.29 6.79C16.29 8.15 15.98 9.32 15.36 10.3C14.74 11.26 13.82 12 12.6 12.52C11.4 13.04 9.91 13.3 8.13 13.3H5.61V22H2.91ZM0.3 17.92V15.97H10.56V17.92H0.3ZM0.3 13.3V11.02H7.17V13.3H0.3ZM7.74 11.02C8.96 11.02 9.99 10.89 10.83 10.63C11.69 10.37 12.35 9.94 12.81 9.34C13.27 8.74 13.5 7.92 13.5 6.88C13.5 5.52 13.08 4.51 12.24 3.85C11.4 3.19 10.09 2.86 8.31 2.86H5.61V11.02H7.74Z" fill="#181818"/>
</svg>
