<svg width="12" height="16" viewBox="0 0 12 16" fill="none" xmlns="http://www.w3.org/2000/svg">
<path d="M0.0844076 7.61943L0.241857 7.74276C0.262274 7.71669 0.277122 7.71157 0.300084 7.71157H2.39997H2.59997V7.51157V0.363671C2.59997 0.295209 2.61744 0.255452 2.63859 0.229606C2.6575 0.206901 2.67315 0.200122 2.70006 0.200122H7.75305C8.94632 0.200122 9.91051 0.638509 10.6621 1.51647C11.4156 2.39789 11.8 3.54187 11.8 4.96591C11.8 6.39102 11.4156 7.53494 10.6621 8.41537L10.662 8.41542C9.91038 9.2942 8.94643 9.7317 7.75305 9.7317H4.56554H4.36554V9.9317V11.2727V11.4727H4.56554H9.30007C9.32695 11.4727 9.34258 11.4796 9.36122 11.5022L9.36185 11.503C9.3825 11.5279 9.40013 11.5671 9.40013 11.6363V13.0909C9.40013 13.1603 9.38263 13.1994 9.36151 13.225L9.36139 13.2251C9.3429 13.2475 9.32752 13.2544 9.30007 13.2544H4.56569H4.36569V13.4544V15.6365C4.36569 15.7034 4.34813 15.7408 4.32613 15.7659L4.32571 15.7664C4.29942 15.7967 4.28203 15.8001 4.26576 15.8001H2.70021C2.67323 15.8001 2.65774 15.7933 2.63901 15.7705L2.63844 15.7698C2.61768 15.7448 2.60013 15.7061 2.60013 15.6365V13.4544V13.2544H2.40013H0.300084C0.2725 13.2544 0.257298 13.2476 0.238768 13.2251L0.238653 13.225C0.217505 13.1993 0.2 13.1603 0.2 13.0908V11.6362C0.2 11.5673 0.217649 11.5279 0.238509 11.5027L0.238739 11.5024C0.257735 11.4794 0.273237 11.4726 0.300084 11.4726H2.40013H2.60013V11.2726V9.93167V9.73167H2.40013H0.300084C0.27244 9.73167 0.25733 9.72489 0.238711 9.70231L0.238653 9.70224C0.217505 9.67661 0.2 9.63754 0.2 9.56809V7.87509C0.2 7.81768 0.215405 7.77664 0.242048 7.74252L0.0844076 7.61943ZM0.0844076 7.61943C0.0282049 7.69141 0 7.77663 0 7.87509V9.56809C0 9.67426 0.0280237 9.76124 0.0844076 9.82955C0.140791 9.89792 0.212364 9.93167 0.300084 9.93167H2.20013L7.75305 9.9317C9.00299 9.9317 10.0232 9.47005 10.814 8.54541C11.6045 7.62175 12 6.42861 12 4.96591C12 3.50419 11.6045 2.31101 10.814 1.38641C10.0233 0.462721 9.00296 0.00012207 7.75305 0.00012207H2.70006C2.61247 0.00012207 2.54074 0.0342783 2.48438 0.102246C2.42815 0.170589 2.39997 0.258097 2.39997 0.363671V7.31157V7.51157H2.19997H0.300084C0.21252 7.51157 0.140766 7.54748 0.0844076 7.61943ZM4.56554 2.22082H4.36554V2.42082V7.51179V7.71179H4.56554H7.56555C8.28163 7.71179 8.87278 7.455 9.31995 6.93773C9.76411 6.42464 9.978 5.76068 9.978 4.9661C9.978 4.17178 9.76404 3.50805 9.31993 2.99446L9.31989 2.99441C8.87274 2.4776 8.28165 2.22082 7.56555 2.22082H4.56554Z" fill="#181818" stroke="white" stroke-width="0.4"/>
</svg>
