<svg width="16" height="12" viewBox="0 0 16 12" fill="none" xmlns="http://www.w3.org/2000/svg">
<path d="M15.6199 2.10762L14.8498 1.33729C14.583 1.08406 14.2713 0.957413 13.9155 0.957413C13.5524 0.957413 13.2444 1.08406 12.9911 1.33729L8.00002 6.32851L3.00897 1.33743C2.75567 1.08421 2.44763 0.957557 2.08466 0.957557C1.7287 0.957557 1.4171 1.08421 1.1502 1.33743L0.390235 2.10776C0.13003 2.36778 0 2.67939 0 3.04229C0 3.41195 0.130174 3.72003 0.390199 3.96646L7.07567 10.652C7.32224 10.912 7.63018 11.0422 7.99998 11.0422C8.36284 11.0422 8.67441 10.9121 8.93437 10.652L15.6199 3.96646C15.8732 3.71309 16 3.40504 16 3.04229C16 2.68615 15.8732 2.37473 15.6199 2.10762Z" fill="#FED74B"/>
</svg>
