<svg width="9" height="9" viewBox="0 0 9 9" fill="none" xmlns="http://www.w3.org/2000/svg">
<path d="M8.17931 3.69797H5.23587V0.754525C5.23587 0.348325 4.90693 0.0186462 4.49999 0.0186462C4.09305 0.0186462 3.76411 0.348325 3.76411 0.754525V3.69797H0.820672C0.413731 3.69797 0.0847931 4.02765 0.0847931 4.43385C0.0847931 4.84004 0.413731 5.16972 0.820672 5.16972H3.76411V8.11317C3.76411 8.51937 4.09305 8.84904 4.49999 8.84904C4.90693 8.84904 5.23587 8.51937 5.23587 8.11317V5.16972H8.17931C8.58625 5.16972 8.91519 4.84004 8.91519 4.43385C8.91519 4.02765 8.58625 3.69797 8.17931 3.69797Z" fill="#BCBCBC"/>
</svg>
