<svg width="14" height="15" viewBox="0 0 14 15" fill="none" xmlns="http://www.w3.org/2000/svg">
<path d="M12.8091 6.73353H8.1616V2.08599C8.1616 1.44462 7.64223 0.924072 6.99969 0.924072C6.35715 0.924072 5.83777 1.44462 5.83777 2.08599V6.73353H1.19023C0.547695 6.73353 0.0283203 7.25407 0.0283203 7.89544C0.0283203 8.53681 0.547695 9.05735 1.19023 9.05735H5.83777V13.7049C5.83777 14.3463 6.35715 14.8668 6.99969 14.8668C7.64223 14.8668 8.1616 14.3463 8.1616 13.7049V9.05735H12.8091C13.4517 9.05735 13.9711 8.53681 13.9711 7.89544C13.9711 7.25407 13.4517 6.73353 12.8091 6.73353Z" fill="#BCBCBC"/>
</svg>
