<svg width="24" height="23" viewBox="0 0 24 23" fill="none" xmlns="http://www.w3.org/2000/svg">
<path d="M20.6506 5.16245H20.1758V0.796798C20.1758 0.502183 20.0176 0.234352 19.7802 0.100437C19.5429 -0.033479 19.2264 -0.033479 18.989 0.100437C17.0637 1.22533 11.4725 4.14469 8.83517 4.14469H1.58242C0.685714 4.14469 0 4.84105 0 5.75167V12.4742C0 13.3849 0.685714 14.0812 1.58242 14.0812H1.66154L4.11429 21.8215C4.2989 22.5179 4.9055 23 5.59121 23C5.64396 23 5.72308 23 5.77582 23C6.90989 22.8929 8.01758 22.5715 8.78242 22.0626C8.99341 21.9555 9.15165 21.8215 9.28352 21.6876C9.30989 21.6608 9.33626 21.6341 9.36264 21.6073C9.86374 20.9377 9.86374 20.0271 9.38901 19.3307C9.0989 18.8754 8.30769 17.0006 8.22857 14.108H8.83517C12.211 14.108 18.9099 18.0987 18.989 18.1523C19.1209 18.2326 19.2527 18.2594 19.3846 18.2594C19.5165 18.2594 19.6484 18.2326 19.7802 18.1523C20.0176 18.0183 20.1758 17.7505 20.1758 17.4559V11.9654H20.6506C22.4967 11.9654 24 10.4387 24 8.5639C24 6.68908 22.4967 5.16245 20.6506 5.16245ZM1.58242 5.75167H8.04396V12.4742H1.58242V5.75167ZM8.07033 20.1878C8.14945 20.3217 8.17582 20.4556 8.12308 20.5627C8.0967 20.5895 8.07033 20.5895 8.04396 20.6163C8.01758 20.6431 7.99121 20.6431 7.96484 20.6699C7.75385 20.8038 6.98901 21.2591 5.64396 21.3662V21.3394L3.34945 14.0812H6.67253C6.75165 17.2416 7.5956 19.4378 8.07033 20.1878ZM18.5934 16.0632C16.589 14.9651 12.5275 12.876 9.62637 12.5278V5.69811C12.422 5.32314 16.5626 3.26084 18.5934 2.16274V16.0632ZM20.6506 10.3584H20.1758V6.76943H20.6506C21.6264 6.76943 22.4176 7.57293 22.4176 8.5639C22.4176 9.55488 21.6264 10.3584 20.6506 10.3584Z" fill="#59B8E9"/>
</svg>
