<svg width="10" height="18" viewBox="0 0 10 18" fill="none" xmlns="http://www.w3.org/2000/svg">
<path d="M0.00337804 9.01412C0.00272621 9.314 0.118916 9.60463 0.331779 9.83554L7.47095 17.5363C7.7133 17.7984 8.06157 17.9633 8.43913 17.9946C8.81668 18.0259 9.19261 17.921 9.48419 17.7032C9.77578 17.4853 9.95915 17.1723 9.99396 16.8329C10.0288 16.4935 9.91217 16.1556 9.66981 15.8935L3.27312 9.01412L9.44136 2.13473C9.55996 2.00344 9.64853 1.85239 9.70198 1.69023C9.75542 1.52808 9.77269 1.35803 9.75279 1.18986C9.73289 1.02169 9.67621 0.858713 9.586 0.710298C9.4958 0.561882 9.37386 0.430953 9.22718 0.325038C9.08037 0.207498 8.90814 0.118478 8.72127 0.0635549C8.5344 0.0086319 8.33693 -0.0110088 8.14123 0.00585995C7.94553 0.0227286 7.75581 0.0757434 7.58396 0.161586C7.41211 0.247428 7.26183 0.364249 7.14255 0.504725L0.24611 8.20553C0.0668939 8.44308 -0.018569 8.72777 0.00337804 9.01412V9.01412Z" fill="#6B6B6B"/>
</svg>
