<svg width="10" height="18" viewBox="0 0 10 18" fill="none" xmlns="http://www.w3.org/2000/svg">
<path d="M9.99662 9.01412C9.99727 9.314 9.88108 9.60463 9.66822 9.83554L2.52905 17.5363C2.2867 17.7984 1.93843 17.9633 1.56087 17.9946C1.18332 18.0259 0.807395 17.921 0.515808 17.7032C0.22422 17.4853 0.0408521 17.1723 0.0060419 16.8329C-0.0287683 16.4935 0.0878306 16.1556 0.330189 15.8935L6.72688 9.01412L0.558644 2.13473C0.440039 2.00344 0.351468 1.85239 0.298022 1.69023C0.244576 1.52808 0.227308 1.35803 0.24721 1.18986C0.267113 1.02169 0.323794 0.858713 0.413995 0.710298C0.504197 0.561882 0.626141 0.430953 0.772818 0.325038C0.91963 0.207498 1.09186 0.118478 1.27873 0.0635549C1.4656 0.0086319 1.66307 -0.0110088 1.85877 0.00585995C2.05447 0.0227286 2.24419 0.0757434 2.41604 0.161586C2.58789 0.247428 2.73817 0.364249 2.85745 0.504725L9.75389 8.20553C9.93311 8.44308 10.0186 8.72777 9.99662 9.01412V9.01412Z" fill="#6B6B6B"/>
</svg>
