<svg width="30" height="30" viewBox="0 0 30 30" fill="none" xmlns="http://www.w3.org/2000/svg">
<path fill-rule="evenodd" clip-rule="evenodd" d="M4.33992 0.0637387C2.29662 0.464614 0.671821 2.03849 0.132347 4.13946C0.0358219 4.51536 0.0292969 5.20851 0.0292969 15V25.459L0.161447 25.957C0.653672 27.8118 1.94585 29.1743 3.80854 29.8027L4.30662 29.9707L9.84371 29.9874C14.8491 30.0025 15.405 29.9949 15.6321 29.9084C16.4624 29.5924 16.703 28.7984 16.2294 27.9376C14.5389 24.8647 14.3803 22.0475 15.7434 19.3066C17.2253 16.327 19.8015 14.6213 23.2551 14.3335C24.4208 14.2363 24.7819 14.0459 24.9619 13.4336C25.1048 12.9475 25.0078 4.49504 24.8535 3.98436C24.2409 1.95726 22.6945 0.497839 20.73 0.0930637C20.2216 -0.0117113 4.86447 -0.0391613 4.33992 0.0637387ZM16.6745 8.23311C17.49 8.73216 17.3863 9.96411 16.4941 10.3772C16.2714 10.4803 15.9933 10.4857 10.9277 10.4864L5.59564 10.4871L5.29587 10.3475C4.38544 9.92361 4.36999 8.63256 5.26962 8.16164L5.52957 8.02559L10.9578 8.04111L16.3862 8.05664L16.6745 8.23311ZM13.662 14.8543C14.4322 15.3897 14.3328 16.516 13.4771 16.9498L13.1561 17.1126L9.31264 17.0963L5.46919 17.08L5.18089 16.9019C4.35672 16.3925 4.42339 15.212 5.30269 14.7451C5.45922 14.662 5.91267 14.6532 9.44322 14.6647L13.4079 14.6777L13.662 14.8543ZM26.0742 16.2898C25.7277 16.45 19.5675 22.5836 19.3956 22.9394C19.1969 23.3509 18.7238 26.3383 18.8064 26.6602C18.9258 27.1254 19.3074 27.4219 19.7869 27.4219C20.064 27.4219 22.6874 26.9489 23.0859 26.827C23.3331 26.7515 29.6448 20.4967 29.8268 20.1469C30.225 19.3814 30.114 19.1493 28.6332 17.6535C27.1283 16.1332 26.7959 15.9561 26.0742 16.2898ZM11.5769 21.2426C12.3225 21.7035 12.3389 22.7767 11.608 23.2905L11.3571 23.4668L8.45427 23.483C5.61012 23.499 5.54629 23.4968 5.29782 23.3765C4.36909 22.927 4.36362 21.646 5.28844 21.1851L5.59564 21.032L8.44212 21.0482L11.2886 21.0644L11.5769 21.2426Z" fill="#2B2B2B"/>
</svg>
