<svg width="5" height="9" viewBox="0 0 5 9" fill="none" xmlns="http://www.w3.org/2000/svg">
<path d="M4.99831 4.50706C4.99864 4.657 4.94054 4.80231 4.83411 4.91777L1.26453 8.76817C1.14335 8.89922 0.969215 8.98164 0.780437 8.99728C0.591658 9.01293 0.403697 8.96052 0.257904 8.8516C0.11211 8.74267 0.020426 8.58614 0.00302095 8.41645C-0.0143841 8.24676 0.0439153 8.07781 0.165095 7.94675L3.36344 4.50706L0.279322 1.06736C0.22002 1.00172 0.175734 0.926192 0.149011 0.845117C0.122288 0.76404 0.113654 0.679017 0.123605 0.594932C0.133557 0.510846 0.161897 0.429357 0.206998 0.355148C0.252099 0.280941 0.313071 0.215477 0.386409 0.162519C0.459815 0.103749 0.545932 0.0592394 0.639365 0.0317774C0.732798 0.00431633 0.831533 -0.00550461 0.929385 0.00292969C1.02724 0.011364 1.1221 0.0378714 1.20802 0.0807934C1.29395 0.123714 1.36908 0.182124 1.42873 0.252362L4.87695 4.10277C4.96655 4.22154 5.00928 4.36389 4.99831 4.50706Z" fill="white"/>
</svg>
