<svg width="34" height="22" viewBox="0 0 34 22" fill="none" xmlns="http://www.w3.org/2000/svg">
<path fill-rule="evenodd" clip-rule="evenodd" d="M16.1511 0.152273C15.1833 0.524172 14.5617 1.96188 14.9707 2.88211C15.0112 2.97322 14.9908 2.99829 14.8763 2.99829C14.1999 2.99829 12.0625 3.64682 10.8767 4.21172C6.61137 6.24408 3.60932 10.3316 2.96546 14.9835L2.87827 15.6135H16.9867H31.095L31.0558 15.1931C30.6377 10.7159 27.4225 6.25811 23.1416 4.22056C21.9385 3.64792 19.822 2.99829 19.1593 2.99829C19.0109 2.99829 18.9871 2.97704 19.0293 2.88211C19.1597 2.58891 19.1386 1.71024 18.9919 1.31922C18.5912 0.251792 17.2867 -0.284047 16.1511 0.152273ZM16.6029 5.82077C17.3088 6.18578 16.9644 6.99426 16.067 7.07899C12.371 7.42786 9.09042 9.87121 7.77322 13.2564C7.3918 14.2368 6.54865 14.4293 6.33661 13.5844C6.0701 12.5226 8.64118 8.98956 10.6529 7.65324C12.6192 6.347 15.7538 5.38173 16.6029 5.82077ZM0.19687 17.2019C-0.691661 18.0903 1.58673 20.5261 3.84116 21.098L4.46828 21.2571H17H29.5317L30.1588 21.098C32.4133 20.5261 34.6917 18.0903 33.8031 17.2019L33.6091 17.0078H17H0.390893L0.19687 17.2019Z" fill="#181818"/>
</svg>
