<svg width="52" height="33" viewBox="0 0 52 33" fill="none" xmlns="http://www.w3.org/2000/svg">
<path fill-rule="evenodd" clip-rule="evenodd" d="M24.7016 0.236392C23.2216 0.813738 22.2708 3.04568 22.8964 4.47427C22.9582 4.6157 22.9272 4.65462 22.752 4.65462C21.7175 4.65462 18.4485 5.66142 16.635 6.53838C10.1115 9.69347 5.52014 16.039 4.53542 23.2607L4.40206 24.2387H25.9796H47.5571L47.4971 23.5862C46.8577 16.6356 41.9402 9.71524 35.3931 6.55211C33.5529 5.66313 30.3159 4.65462 29.3025 4.65462C29.0754 4.65462 29.0392 4.62164 29.1036 4.47427C29.303 4.01909 29.2708 2.65502 29.0464 2.04799C28.4336 0.390888 26.4385 -0.440961 24.7016 0.236392ZM25.3927 9.03631C26.4722 9.60296 25.9455 10.8581 24.5731 10.9896C18.9203 11.5312 13.903 15.3243 11.8885 20.5795C11.3051 22.1015 10.0156 22.4004 9.69129 21.0888C9.28368 19.4404 13.2159 13.9556 16.2927 11.8811C19.3 9.85324 24.094 8.35473 25.3927 9.03631ZM0.301095 26.7046C-1.05783 28.0839 2.42677 31.8652 5.87472 32.753L6.83383 33H26H45.1662L46.1253 32.753C49.5732 31.8652 53.0578 28.0839 51.6989 26.7046L51.4022 26.4033H26H0.597837L0.301095 26.7046Z" fill="#181818"/>
</svg>
