<svg width="50" height="46" viewBox="0 0 50 46" fill="none" xmlns="http://www.w3.org/2000/svg">
<path fill-rule="evenodd" clip-rule="evenodd" d="M18.2617 2.80962V5.56837H19.7754H21.289V2.80962L21.2891 0.0507507H19.7754H18.2617V2.80962ZM28.711 2.80962V5.56837H30.2246H31.7383V2.80962V0.0507507H30.2246H28.711V2.80962ZM18.4691 8.50562C14.5896 9.54912 13.2434 14.465 16.0645 17.2869C19.3758 20.5992 25.0089 18.2952 25.0175 13.625C25.0239 10.1549 21.7764 7.61612 18.4691 8.50562ZM28.9329 8.48587C27.2372 8.91662 26.7332 9.418 27.1294 10.2797C27.5455 11.1849 27.7395 11.9575 27.8043 12.9659L27.8591 13.8204L29.5301 13.8237C31.9325 13.8286 33.198 14.1097 34.5704 14.9434C35.2761 15.3721 35.2106 15.3976 35.3536 14.6396C36.0691 10.8476 32.626 7.54762 28.9329 8.48587ZM7.83813 16.8002C6.09125 17.1797 4.61925 18.6687 4.245 20.4346C4.14437 20.9095 4.1045 21.8041 4.10325 23.6104L4.10162 26.125H19.7754H35.4492V23.4617C35.4492 19.9641 35.2744 19.2976 34.0306 18.0532C32.933 16.9552 31.8981 16.6559 29.1929 16.6537L27.2822 16.6524L27.1105 17.0126C24.2116 23.0915 15.5989 23.1817 12.5604 17.165L12.3014 16.6524L10.3744 16.6601C9.14638 16.665 8.22625 16.7159 7.83813 16.8002ZM37.4671 17.1086L37.2352 17.5649L37.554 18.2561C38.1798 19.6127 38.2106 19.8271 38.2554 23.1221L38.2961 26.125H42.0973H45.8985L45.8968 23.6104C45.8944 20.1139 45.6857 19.3099 44.4634 18.0875C43.3075 16.9316 42.3698 16.6565 39.5771 16.654L37.699 16.6524L37.4671 17.1086ZM6.25 32.0332V35.1094H19.8242H33.3985V32.0332V28.957H19.8242H6.25V32.0332ZM36.2305 32.0332V35.1094H39.9902H43.75V32.0332V28.957H39.9902H36.2305V32.0332ZM0 39.3189C0 42.2162 1.151 44.2196 3.4635 45.3471C4.7945 45.9961 3.19875 45.9537 25.213 45.9257L45.166 45.9004L45.8667 45.6441C48.5356 44.6682 49.9079 42.6277 49.9799 39.5284L50.0168 37.9414H25.0084H0V39.3189Z" fill="#181818"/>
</svg>
