<svg width="50" height="50" viewBox="0 0 50 50" fill="none" xmlns="http://www.w3.org/2000/svg">
<g clip-path="url(#clip0_320_9771)">
<path fill-rule="evenodd" clip-rule="evenodd" d="M18.2617 4.80962V7.56837H19.7754H21.289V4.80962L21.2891 2.05075H19.7754H18.2617V4.80962ZM28.711 4.80962V7.56837H30.2246H31.7383V4.80962V2.05075H30.2246H28.711V4.80962ZM18.4691 10.5056C14.5896 11.5491 13.2434 16.465 16.0645 19.2869C19.3758 22.5992 25.0089 20.2952 25.0175 15.625C25.0239 12.1549 21.7764 9.61612 18.4691 10.5056ZM28.9329 10.4859C27.2372 10.9166 26.7332 11.418 27.1294 12.2797C27.5455 13.1849 27.7395 13.9575 27.8043 14.9659L27.8591 15.8204L29.5301 15.8237C31.9325 15.8286 33.198 16.1097 34.5704 16.9434C35.2761 17.3721 35.2106 17.3976 35.3536 16.6396C36.0691 12.8476 32.626 9.54762 28.9329 10.4859ZM7.83813 18.8002C6.09125 19.1797 4.61925 20.6687 4.245 22.4346C4.14437 22.9095 4.1045 23.8041 4.10325 25.6104L4.10162 28.125H19.7754H35.4492V25.4617C35.4492 21.9641 35.2744 21.2976 34.0306 20.0532C32.933 18.9552 31.8981 18.6559 29.1929 18.6537L27.2822 18.6524L27.1105 19.0126C24.2116 25.0915 15.5989 25.1817 12.5604 19.165L12.3014 18.6524L10.3744 18.6601C9.14638 18.665 8.22625 18.7159 7.83813 18.8002ZM37.4671 19.1086L37.2352 19.5649L37.554 20.2561C38.1798 21.6127 38.2106 21.8271 38.2554 25.1221L38.2961 28.125H42.0973H45.8985L45.8968 25.6104C45.8944 22.1139 45.6857 21.3099 44.4634 20.0875C43.3075 18.9316 42.3698 18.6565 39.5771 18.654L37.699 18.6524L37.4671 19.1086ZM6.25 34.0332V37.1094H19.8242H33.3985V34.0332V30.957H19.8242H6.25V34.0332ZM36.2305 34.0332V37.1094H39.9902H43.75V34.0332V30.957H39.9902H36.2305V34.0332ZM0 41.3189C0 44.2162 1.151 46.2196 3.4635 47.3471C4.7945 47.9961 3.19875 47.9537 25.213 47.9257L45.166 47.9004L45.8667 47.6441C48.5356 46.6682 49.9079 44.6277 49.9799 41.5284L50.0168 39.9414H25.0084H0V41.3189Z" fill="#181818"/>
</g>
<defs>
<clipPath id="clip0_320_9771">
<rect width="50" height="50" fill="white"/>
</clipPath>
</defs>
</svg>
