<svg width="30" height="28" viewBox="0 0 30 28" fill="none" xmlns="http://www.w3.org/2000/svg">
<path fill-rule="evenodd" clip-rule="evenodd" d="M10.957 1.88576V3.54101H11.8652H12.7734V1.88576L12.7735 0.230438H11.8652H10.957V1.88576ZM17.2266 1.88576V3.54101H18.1348H19.0429V1.88576V0.230438H18.1348H17.2266V1.88576ZM11.0815 5.30336C8.75377 5.92946 7.94602 8.87899 9.6387 10.5721C11.6255 12.5595 15.0053 11.1771 15.0105 8.37499C15.0143 6.29291 13.0658 4.76966 11.0815 5.30336ZM17.3597 5.29151C16.3423 5.54996 16.0399 5.85079 16.2776 6.36784C16.5273 6.91091 16.6437 7.37449 16.6825 7.97951L16.7155 8.49221L17.7181 8.49424C19.1595 8.49716 19.9188 8.66584 20.7422 9.16601C21.1657 9.42326 21.1264 9.43856 21.2122 8.98376C21.6415 6.70856 19.5756 4.72856 17.3597 5.29151ZM4.70287 10.2801C3.65475 10.5078 2.77155 11.4012 2.547 12.4608C2.48662 12.7457 2.4627 13.2825 2.46195 14.3662L2.46097 15.875H11.8652H21.2695V14.277C21.2695 12.1785 21.1646 11.7786 20.4184 11.0319C19.7598 10.3731 19.1389 10.1935 17.5157 10.1922L16.3693 10.1914L16.2663 10.4076C14.527 14.0549 9.35932 14.109 7.53622 10.499L7.38082 10.1914L6.22462 10.1961C5.48782 10.199 4.93575 10.2295 4.70287 10.2801ZM22.4803 10.4652L22.3411 10.7389L22.5324 11.1537C22.9078 11.9676 22.9264 12.0963 22.9532 14.0733L22.9777 15.875H25.2584H27.5391L27.538 14.3662C27.5366 12.2683 27.4114 11.7859 26.678 11.0525C25.9845 10.359 25.4218 10.1939 23.7463 10.1924L22.6194 10.1914L22.4803 10.4652ZM3.75 19.4199V21.2656H11.8945H20.0391V19.4199V17.5742H11.8945H3.75V19.4199ZM21.7383 19.4199V21.2656H23.9941H26.25V19.4199V17.5742H23.9941H21.7383V19.4199ZM0 23.7913C0 25.5297 0.6906 26.7318 2.0781 27.4083C2.8767 27.7977 1.91925 27.7722 15.1278 27.7554L27.0996 27.7402L27.52 27.5865C29.1214 27.0009 29.9447 25.7766 29.9879 23.917L30.01 22.9648H15.005H0V23.7913Z" fill="#181818"/>
</svg>
