<svg width="12" height="12" viewBox="0 0 12 12" fill="none" xmlns="http://www.w3.org/2000/svg">
<path d="M11.134 0.860033C10.7085 0.434676 10.0188 0.434676 9.59334 0.860033L6.00532 4.44806L2.41729 0.860033C1.98976 0.447108 1.31018 0.453014 0.889885 0.873306C0.469593 1.2936 0.463687 1.97318 0.876612 2.40071L4.46464 5.98874L0.876612 9.57676C0.593365 9.85033 0.479769 10.2554 0.579483 10.6364C0.679198 11.0173 0.976705 11.3149 1.35766 11.4146C1.73861 11.5143 2.14373 11.4007 2.41729 11.1174L6.00532 7.52942L9.59334 11.1174C10.0209 11.5304 10.7005 11.5245 11.1208 11.1042C11.541 10.6839 11.5469 10.0043 11.134 9.57676L7.546 5.98874L11.134 2.40071C11.5594 1.97523 11.5594 1.28552 11.134 0.860033Z" fill="#181818"/>
</svg>
