<svg width="18" height="18" viewBox="0 0 18 18" fill="none" xmlns="http://www.w3.org/2000/svg">
<path d="M16.7015 1.29212C16.0633 0.65409 15.0287 0.65409 14.3905 1.29212L9.00847 6.67416L3.62643 1.29212C2.98513 0.672738 1.96575 0.681596 1.33532 1.31203C0.704877 1.94247 0.696019 2.96185 1.31541 3.60315L6.69744 8.98518L1.31541 14.3672C0.890536 14.7776 0.720142 15.3852 0.869713 15.9567C1.01928 16.5281 1.46555 16.9744 2.03698 17.1239C2.60841 17.2735 3.21608 17.1031 3.62643 16.6782L9.00847 11.2962L14.3905 16.6782C15.0318 17.2976 16.0512 17.2888 16.6816 16.6583C17.3121 16.0279 17.3209 15.0085 16.7015 14.3672L11.3195 8.98518L16.7015 3.60315C17.3396 2.96492 17.3396 1.93035 16.7015 1.29212Z" fill="#181818"/>
</svg>
