<svg width="14" height="14" viewBox="0 0 14 14" fill="none" xmlns="http://www.w3.org/2000/svg">
<path d="M12.8333 5.83331H8.16669V1.16669C8.16669 0.522684 7.64518 0 7 0C6.35482 0 5.83331 0.522684 5.83331 1.16669V5.83331H1.16669C0.521508 5.83331 0 6.356 0 7C0 7.644 0.521508 8.16669 1.16669 8.16669H5.83331V12.8333C5.83331 13.4773 6.35482 14 7 14C7.64518 14 8.16669 13.4773 8.16669 12.8333V8.16669H12.8333C13.4785 8.16669 14 7.644 14 7C14 6.356 13.4785 5.83331 12.8333 5.83331Z" fill="#BCBCBC"/>
</svg>
