<svg width="9" height="9" viewBox="0 0 9 9" fill="none" xmlns="http://www.w3.org/2000/svg">
<path d="M8.17924 3.698H5.23579V0.754555C5.23579 0.348356 4.90686 0.0186768 4.49992 0.0186768C4.09297 0.0186768 3.76404 0.348356 3.76404 0.754555V3.698H0.820596C0.413654 3.698 0.0847168 4.02768 0.0847168 4.43388C0.0847168 4.84008 0.413654 5.16975 0.820596 5.16975H3.76404V8.1132C3.76404 8.5194 4.09297 8.84908 4.49992 8.84908C4.90686 8.84908 5.23579 8.5194 5.23579 8.1132V5.16975H8.17924C8.58618 5.16975 8.91512 4.84008 8.91512 4.43388C8.91512 4.02768 8.58618 3.698 8.17924 3.698Z" fill="#1D96D4"/>
</svg>
