<svg width="10" height="19" viewBox="0 0 10 19" fill="none" xmlns="http://www.w3.org/2000/svg">
<path d="M0.00337804 10.0097C0.00272621 10.3096 0.118916 10.6002 0.331779 10.8311L7.47095 18.5319C7.7133 18.7941 8.06157 18.9589 8.43913 18.9902C8.81668 19.0215 9.19261 18.9167 9.48419 18.6988C9.77578 18.4809 9.95915 18.1679 9.99396 17.8285C10.0288 17.4891 9.91217 17.1512 9.66981 16.8891L3.27312 10.0097L9.44136 3.13033C9.55996 2.99905 9.64853 2.84799 9.70198 2.68584C9.75542 2.52369 9.77269 2.35364 9.75279 2.18547C9.73289 2.0173 9.67621 1.85432 9.586 1.7059C9.4958 1.55749 9.37386 1.42656 9.22718 1.32064C9.08037 1.2031 8.90814 1.11408 8.72127 1.05916C8.5344 1.00424 8.33693 0.984597 8.14123 1.00147C7.94553 1.01833 7.75581 1.07135 7.58396 1.15719C7.41211 1.24303 7.26183 1.35985 7.14255 1.50033L0.24611 9.20114C0.0668939 9.43869 -0.018569 9.72338 0.00337804 10.0097V10.0097Z" fill="#6B6B6B"/>
</svg>
