<svg width="10" height="19" viewBox="0 0 10 19" fill="none" xmlns="http://www.w3.org/2000/svg">
<path d="M9.99662 10.0097C9.99727 10.3096 9.88108 10.6002 9.66822 10.8311L2.52905 18.5319C2.2867 18.7941 1.93843 18.9589 1.56087 18.9902C1.18332 19.0215 0.807395 18.9167 0.515808 18.6988C0.22422 18.4809 0.0408521 18.1679 0.0060419 17.8285C-0.0287683 17.4891 0.0878306 17.1512 0.330189 16.8891L6.72688 10.0097L0.558644 3.13033C0.440039 2.99905 0.351468 2.84799 0.298022 2.68584C0.244576 2.52369 0.227308 2.35364 0.24721 2.18547C0.267113 2.0173 0.323794 1.85432 0.413995 1.7059C0.504197 1.55749 0.626141 1.42656 0.772818 1.32064C0.91963 1.2031 1.09186 1.11408 1.27873 1.05916C1.4656 1.00424 1.66307 0.984597 1.85877 1.00147C2.05447 1.01833 2.24419 1.07135 2.41604 1.15719C2.58789 1.24303 2.73817 1.35985 2.85745 1.50033L9.75389 9.20114C9.93311 9.43869 10.0186 9.72338 9.99662 10.0097V10.0097Z" fill="#6B6B6B"/>
</svg>
