<svg  width="9" height="12" viewBox="0 0 9 12" fill="none" xmlns="http://www.w3.org/2000/svg">
<path d="M1.55216 12V0.575989H4.56016C5.95749 0.575989 6.99216 0.858656 7.66416 1.42399C8.34682 1.98932 8.68816 2.81066 8.68816 3.88799C8.68816 4.61332 8.52282 5.23732 8.19216 5.75999C7.86149 6.27199 7.37082 6.66666 6.72016 6.94399C6.08016 7.22132 5.28549 7.35999 4.33616 7.35999H2.99216V12H1.55216ZM0.160156 9.82399V8.78399H5.63216V9.82399H0.160156ZM0.160156 7.35999V6.14399H3.82416V7.35999H0.160156ZM4.12816 6.14399C4.77882 6.14399 5.32816 6.07466 5.77616 5.93599C6.23482 5.79732 6.58682 5.56799 6.83216 5.24799C7.07749 4.92799 7.20016 4.49066 7.20016 3.93599C7.20016 3.21066 6.97616 2.67199 6.52816 2.31999C6.08016 1.96799 5.38149 1.79199 4.43216 1.79199H2.99216V6.14399H4.12816Z" fill="#1D96D4"/>
</svg>
